<svg xmlns="http://www.w3.org/2000/svg" viewBox="0 0 100 100">
  <defs>
    <!-- Gradiente corregido: más claro arriba-izquierda y más oscuro abajo-derecha -->
<linearGradient id="bg" x1="0.15" y1="0.10" x2="0.85" y2="0.90">
  <stop offset="0" stop-color="#215F8F"/>
  <stop offset="1" stop-color="#0F0E0E"/>
</linearGradient>


  </defs>

  <path d="M18 0H82A18 18 0 0 1 100 18V82A18 18 0 0 1 82 100H18A18 18 0 0 1 0 82V18A18 18 0 0 1 18 0Z" fill="url(#bg)"/>

  <path fill="#FCFDFD" transform="translate(-43.668746 -42.038609) scale(0.183682512)" d="M524.993469,326.860779 C525.441711,326.905273 525.889893,326.949738 526.671021,326.927307 C551.039978,326.861481 574.446045,330.521118 597.018127,338.970062 C600.440552,340.251038 603.807007,341.681427 607.549805,343.162964 C623.311584,350.653290 638.210693,358.872375 650.862793,370.535583 C652.577026,372.115845 653.903809,374.923065 654.063538,377.254425 C655.256775,394.666626 647.807739,408.230347 634.828918,419.284485 C623.669128,428.789398 610.460876,431.856384 596.403564,430.688141 C590.987305,430.238037 585.722046,427.151154 580.539856,424.913849 C574.192505,422.173462 568.004517,419.064026 561.044922,415.936157 C551.230774,414.092529 542.176636,411.466614 532.998535,410.918823 C477.854462,407.627472 431.475311,452.823151 438.181549,512.002991 C439.550812,523.138367 442.522339,533.783691 448.023285,543.992615 C462.536530,570.142639 484.731079,585.128967 513.582947,589.769348 C540.918396,594.165771 565.748352,587.481384 587.373962,569.909241 C593.653076,564.807068 600.246582,560.450928 608.668457,558.778320 C630.727600,556.478271 647.157654,566.253601 661.283142,581.969849 C664.084045,586.539490 666.662415,590.900452 669.184875,595.293518 C671.749573,599.760315 672.279968,604.073853 667.616028,608.420776 C665.126953,611.898865 663.033752,614.879395 660.940491,617.859924 C651.472900,626.017395 642.334167,634.600403 632.460876,642.233093 C617.512573,653.789124 600.406555,661.358948 582.409729,666.870056 C561.404480,673.302429 539.862671,675.793030 517.468994,675.205200 C497.034912,673.826050 477.573792,669.971619 458.402435,662.929932 C450.101929,659.214417 441.897705,656.022827 434.335236,651.706726 C426.755127,647.380493 419.240417,642.582581 412.727661,636.825500 C402.562164,627.839478 393.266113,617.869934 383.311218,608.156128 C372.064514,593.029846 363.301178,576.850220 356.209381,559.351013 C353.921844,548.491882 350.666260,538.077209 349.744476,527.459900 C348.489288,513.001831 348.755524,498.386505 348.902527,483.843964 C348.963257,477.833984 350.406097,471.837921 351.222473,465.419067 C356.110138,450.568329 359.725708,435.525787 366.260620,421.881439 C372.074768,409.741913 380.383423,398.545837 388.967865,388.060547 C396.421143,378.956848 405.224457,370.704803 414.456146,363.365631 C431.641174,349.703552 451.509949,340.894226 473.097839,334.217468 C477.175385,333.035828 480.585510,332.082458 484.408630,331.129761 C498.212250,329.707214 511.602875,328.283997 524.993469,326.860779 Z"/>
</svg>
