<svg version="1.1" id="Layer_1" xmlns="http://www.w3.org/2000/svg" xmlns:xlink="http://www.w3.org/1999/xlink" x="0px" y="0px"
	 width="100%" viewBox="0 0 1024 1024" enable-background="new 0 0 1024 1024" xml:space="preserve">
<path fill="#000000" opacity="1.000000" stroke="none" 
	d="
M82.040390,535.743774 
	C73.957146,518.156555 74.975136,500.328003 79.413658,482.653076 
	C85.954132,456.607819 98.556831,433.461029 114.664192,412.050842 
	C142.555222,374.977631 175.992050,344.112579 216.145233,320.757507 
	C233.931427,310.412170 252.603256,302.038849 273.068542,298.435455 
	C282.614838,296.754608 292.192902,296.153168 301.846558,297.927368 
	C315.635651,300.461578 325.507141,311.636902 326.044220,326.443298 
	C327.234406,359.254242 312.283905,384.279419 287.649323,404.431030 
	C286.005615,405.775696 283.965485,406.718231 281.983032,407.543518 
	C279.938721,408.394592 277.534790,408.870483 276.184906,406.531769 
	C274.927399,404.353149 275.974121,402.383148 277.805786,400.825562 
	C284.605103,395.043610 289.879089,387.958099 294.778168,380.597992 
	C303.548584,367.421753 309.935455,353.203552 312.429626,337.477631 
	C313.502258,330.714447 313.668091,323.851562 311.625549,317.169708 
	C309.190948,309.205170 304.186493,305.457245 295.813232,305.197418 
	C281.079315,304.740143 267.608734,309.591919 254.527802,315.529572 
	C228.843643,327.187958 205.926086,343.090576 184.866714,361.780243 
	C160.950012,383.005646 139.413834,406.254181 122.851929,433.806519 
	C110.013535,455.164368 100.706238,477.903442 97.898178,502.763458 
	C96.274429,517.138794 97.405182,531.431885 106.306274,543.936157 
	C112.196503,552.210693 120.253365,555.715698 130.234512,556.151550 
	C150.789795,557.049194 169.275131,550.082214 187.076172,541.130188 
	C217.931992,525.613098 245.000839,504.486877 271.569031,482.694519 
	C278.756287,476.799255 285.442200,470.110474 294.813141,467.554321 
	C297.007629,466.955719 297.684753,464.920929 298.785828,463.292572 
	C306.124023,452.440582 319.594818,446.931610 331.799316,449.469025 
	C343.857178,451.976013 349.753998,462.891937 348.662659,474.686676 
	C348.407288,477.446381 347.792755,480.172821 347.137756,484.169739 
	C359.124084,481.117584 370.280029,478.760742 379.638824,471.675903 
	C387.242218,465.919891 395.194031,460.834961 403.822754,456.752350 
	C411.114410,453.302399 418.759979,452.204437 426.680939,452.831726 
	C431.236938,453.192566 435.089691,454.975983 436.810394,459.669708 
	C437.285187,460.964783 437.344849,462.339874 436.212311,463.384491 
	C435.138367,464.375031 433.987244,463.804749 432.983734,463.227356 
	C426.660004,459.588867 420.427917,461.490570 414.835144,464.440063 
	C397.072083,473.807861 385.440460,488.546173 378.919281,507.424652 
	C378.782257,507.821320 379.007660,508.343170 379.101227,509.112823 
	C382.591156,508.879028 384.934784,506.753876 387.416901,504.901001 
	C398.267792,496.800842 407.176483,486.536591 417.533997,477.889160 
	C421.315613,474.731934 425.393311,472.291138 430.635956,472.713837 
	C435.205200,473.082275 438.009583,475.446198 439.087402,479.858582 
	C440.350983,485.031250 440.405426,490.286560 439.725983,496.188660 
	C449.456573,489.269318 457.681335,481.531128 466.158539,474.101349 
	C473.168304,467.957642 479.933533,461.507965 487.596619,456.166107 
	C490.544525,454.111176 493.792664,451.662537 497.612366,454.365112 
	C501.447205,457.078461 501.607330,460.874664 500.502930,465.100586 
	C499.274414,469.801331 497.438263,474.234650 495.501892,478.666687 
	C493.980225,482.149628 492.834900,485.797028 491.308044,489.955078 
	C494.240845,489.653748 495.460052,487.809753 496.915710,486.434204 
	C505.759857,478.077271 514.663757,469.804626 525.267212,463.630432 
	C529.325928,461.267151 533.617371,460.268677 538.222046,461.372528 
	C544.550232,462.889618 547.344482,467.717224 548.897400,473.440247 
	C550.726379,480.180725 551.857056,487.148010 554.152466,493.715698 
	C557.446106,503.139343 561.473694,504.754517 571.061584,502.028503 
	C584.998413,498.066071 597.484558,491.103851 609.688110,483.549469 
	C615.295715,480.078156 620.823669,476.478271 626.644897,472.773071 
	C628.325439,476.244904 626.841919,478.339142 624.736877,480.085693 
	C608.040283,493.938812 589.870483,505.248627 568.726318,510.892761 
	C563.183105,512.372437 557.239014,512.922729 551.396667,512.453369 
	C544.398926,511.891235 539.303101,508.281189 535.839111,502.197327 
	C532.039673,495.524261 530.894836,488.119446 529.778442,480.712128 
	C529.430054,478.399841 529.050659,476.141449 527.785583,473.524719 
	C522.968567,474.315033 519.709045,477.824158 516.298523,480.673798 
	C505.691437,489.536377 495.585236,498.967010 485.923096,508.862976 
	C484.992493,509.816101 484.080444,510.818298 483.017365,511.605347 
	C479.751129,514.023438 476.121979,515.470703 472.402649,512.968018 
	C468.938690,510.637238 468.479767,507.010132 469.516724,503.139771 
	C472.192322,493.153473 475.540833,483.391266 479.822021,472.578735 
	C472.308380,479.138519 465.737610,485.007172 459.018066,490.700165 
	C453.559296,495.324951 448.073395,499.946228 442.302734,504.162903 
	C439.207428,506.424744 437.728882,509.034882 437.114746,512.740784 
	C432.511505,540.520447 425.136505,567.396240 410.206482,591.648010 
	C397.224701,612.735291 381.536560,631.335571 360.289215,644.641357 
	C350.028809,651.066772 338.900360,654.538330 326.660828,654.165344 
	C310.821136,653.682617 302.621368,643.175842 306.230286,627.657227 
	C308.729919,616.908569 314.223816,607.510559 320.624512,598.776306 
	C336.857025,576.625916 356.369232,557.574219 377.240967,539.813049 
	C389.704163,529.207336 402.676361,519.355591 416.644135,510.838776 
	C419.419708,509.146423 421.125305,506.972534 421.392029,503.724976 
	C421.887909,497.687042 423.826630,491.717255 422.492523,485.278198 
	C419.602264,486.281464 417.702942,488.081329 415.840820,489.944916 
	C409.008301,496.782898 401.948456,503.359650 394.510712,509.554535 
	C390.750122,512.686768 386.660126,515.102722 382.401306,517.410461 
	C376.211365,520.764648 370.106323,520.919067 364.701660,516.433960 
	C358.976318,511.682739 358.909790,505.113556 360.860809,498.511841 
	C361.925720,494.908325 363.500885,491.455566 365.151459,487.135101 
	C357.649872,489.476776 350.851257,491.563507 343.751801,492.356964 
	C340.865173,492.679565 340.043610,495.508545 338.658020,497.496552 
	C329.747009,510.281677 318.178741,519.239563 302.731476,522.658447 
	C297.130096,523.898193 291.370819,524.073792 285.867767,522.828735 
	C274.246948,520.199463 271.446564,512.204529 270.193542,500.177826 
	C270.096313,499.244629 270.873383,498.247681 269.813202,497.164673 
	C261.495392,503.470734 253.240524,509.887604 244.821320,516.081055 
	C223.296844,531.915161 200.985138,546.433411 175.793106,555.895569 
	C160.874222,561.499146 145.601807,564.911621 129.441879,564.245483 
	C108.440300,563.379700 92.265411,555.015076 82.040390,535.743774 
M379.344177,609.833740 
	C398.682983,582.316650 411.943146,552.221436 418.535034,519.003174 
	C416.347198,518.905884 415.517639,520.114929 414.481934,520.856018 
	C404.185059,528.223450 394.736542,536.609619 385.401123,545.133667 
	C363.715149,564.935120 343.385162,585.960938 327.448181,610.797180 
	C322.691742,618.209595 318.561096,626.136108 318.373474,635.306458 
	C318.218353,642.890442 322.674866,646.994690 330.175201,646.797485 
	C333.756836,646.703308 337.017914,645.731628 340.237366,644.256836 
	C356.498535,636.808350 368.145477,624.112549 379.344177,609.833740 
M288.662567,508.533813 
	C291.010590,513.909363 294.461823,516.774597 298.661041,515.455750 
	C310.551453,511.721497 319.557495,504.009125 327.359406,493.742828 
	C316.088257,491.577271 304.915588,491.428925 297.583405,481.245300 
	C291.457520,489.689972 287.816589,497.979095 288.662567,508.533813 
M313.929596,464.513977 
	C309.991974,471.302216 310.467255,474.733582 316.338593,479.613434 
	C320.839478,483.354279 326.129730,485.045441 331.990234,484.966644 
	C333.936005,484.940460 335.618958,484.505188 336.479584,482.532257 
	C337.807343,479.488525 339.156464,476.414185 339.439697,473.081848 
	C340.304016,462.913208 333.587524,455.823639 324.527954,457.357819 
	C320.267670,458.079224 316.874084,460.386658 313.929596,464.513977 
z"/>
<path fill="#000000" opacity="1.000000" stroke="none" 
	d="
M715.398071,516.756348 
	C707.722351,516.782043 706.088928,514.179688 709.806519,508.150665 
	C713.736938,501.776367 717.925293,495.561432 721.959106,489.250183 
	C722.630066,488.200378 723.845215,487.333405 723.364746,485.311462 
	C717.089722,486.969482 710.862854,488.605347 704.643066,490.268036 
	C703.679932,490.525543 702.771423,491.015656 701.799927,491.207703 
	C699.392944,491.683472 696.558960,492.780060 695.325623,489.569244 
	C693.973816,486.050079 696.482849,484.141571 699.274780,483.207458 
	C704.317322,481.520294 709.466003,480.101837 714.643677,478.882599 
	C718.836304,477.895325 723.127747,477.307953 727.392578,476.655701 
	C729.608643,476.316803 730.804626,474.870789 732.027039,473.215210 
	C750.230286,448.560852 768.209534,423.726135 787.823853,400.159760 
	C798.798462,386.973907 810.179199,374.110504 822.971680,362.611237 
	C826.159302,359.745880 829.339905,356.631714 834.155823,356.675568 
	C839.450684,356.723816 842.075012,359.887817 840.215027,364.792786 
	C829.944641,391.876343 825.046082,420.211823 820.495300,448.624054 
	C819.501404,454.829346 819.140198,461.135956 818.456421,467.694611 
	C824.364441,469.128479 830.161804,468.490906 835.924194,468.430206 
	C855.568481,468.223236 875.187683,468.517761 894.767517,470.443604 
	C908.848083,471.828613 922.832031,473.612152 936.359314,477.954468 
	C939.206604,478.868469 941.990051,480.008575 944.738220,481.194336 
	C946.344971,481.887665 947.734558,483.086121 946.980835,485.070892 
	C946.171265,487.202942 944.382385,486.735291 942.750854,486.132690 
	C921.848511,478.412415 899.984802,477.215790 878.022644,476.047729 
	C859.528992,475.064148 841.092896,474.914215 822.612976,475.929169 
	C818.641785,476.147278 817.165283,477.374756 817.062256,481.498993 
	C816.732422,494.710663 817.737366,507.778564 820.437073,520.696594 
	C821.569763,526.116516 823.839478,531.116211 827.126831,535.643311 
	C828.479248,537.505798 830.217407,539.653076 828.773315,542.016357 
	C827.183655,544.617798 824.273376,544.698425 821.575439,544.248291 
	C813.555054,542.910095 808.844421,537.441223 805.380554,530.682373 
	C800.114075,520.406311 798.201477,509.285797 797.790039,497.888763 
	C797.551086,491.269714 797.746582,484.635010 797.746582,478.143097 
	C793.641968,476.505219 790.061279,476.943939 786.708435,477.353882 
	C773.682495,478.946655 760.516724,479.095612 747.550720,481.294922 
	C744.401001,481.829163 742.054382,482.991852 740.231934,485.767700 
	C734.840149,493.980133 729.162659,502.004517 723.721313,510.185181 
	C721.707153,513.213318 719.322144,515.596802 715.398071,516.756348 
M797.912842,465.355774 
	C800.060852,443.540985 802.886597,421.831635 807.944641,400.465759 
	C808.487122,398.174377 808.886414,395.849091 809.631409,392.154907 
	C787.076477,418.229340 768.685669,445.501526 749.321228,473.120453 
	C757.300415,472.234619 764.205811,471.301300 771.141357,470.744293 
	C778.260681,470.172516 785.415894,470.057159 792.541809,469.550751 
	C794.743164,469.394287 797.440979,469.447327 797.912842,465.355774 
z"/>
<path fill="#000000" opacity="1.000000" stroke="none" 
	d="
M668.027100,435.109192 
	C676.411011,416.108765 684.655762,397.466614 693.333313,377.845917 
	C684.792053,379.591461 677.169922,381.079224 669.582397,382.726105 
	C665.033325,383.713501 660.570740,385.115784 656.006287,386.009918 
	C653.388611,386.522705 650.210754,386.687683 649.462463,383.223999 
	C648.782104,380.074677 651.591492,378.941315 653.945557,378.148499 
	C664.214600,374.689789 674.768005,372.272644 685.426636,370.456909 
	C700.693787,367.856140 716.054199,366.049866 731.605225,366.854492 
	C735.315735,367.046509 738.888000,367.709198 742.073303,369.701447 
	C743.222290,370.420074 744.190247,371.549774 743.757874,373.032440 
	C743.279236,374.673767 741.716003,374.635101 740.422729,374.468018 
	C735.122253,373.783264 729.820557,374.090820 724.507874,374.043518 
	C718.022217,373.985779 714.442017,376.849640 712.006226,382.577393 
	C704.579529,400.041321 696.953491,417.421631 689.284668,434.781281 
	C677.714233,460.973022 668.676025,488.149017 657.588928,515.184692 
	C661.039795,515.893066 664.073669,515.525024 667.154175,515.256042 
	C677.293030,514.370850 687.434753,513.822937 697.400635,516.690308 
	C698.510315,517.009583 699.625977,517.355774 700.672485,517.834534 
	C702.038208,518.459290 702.704529,519.589722 702.268066,521.093140 
	C701.822876,522.626892 700.565247,523.188965 699.137573,522.912598 
	C691.531006,521.439880 683.858215,522.193604 676.219116,522.221619 
	C659.839600,522.281677 643.936096,526.036438 627.927856,528.871277 
	C621.390747,530.028870 614.957397,531.769226 608.468018,533.204468 
	C607.499939,533.418579 606.469177,533.565552 605.491272,533.477905 
	C602.846252,533.240784 599.222412,534.438843 598.630005,530.378418 
	C598.113037,526.835022 601.352539,526.278992 603.823181,525.387207 
	C613.586975,521.862976 623.940002,521.020996 634.010193,518.899231 
	C636.707581,518.330933 637.921692,517.185974 638.752869,514.661560 
	C647.554626,487.930664 657.317200,461.549561 668.027100,435.109192 
z"/>
<path fill="#000000" opacity="1.000000" stroke="none" 
	d="
M573.897339,553.893494 
	C589.585022,552.521118 604.795166,550.912415 620.048218,549.678406 
	C652.317932,547.067810 684.624512,547.529663 716.912598,547.935852 
	C742.692078,548.260132 768.353638,550.842224 793.833496,555.047363 
	C805.009888,556.891968 816.026306,559.276978 826.784119,562.808105 
	C829.858459,563.817200 832.896667,565.004333 835.042969,567.733765 
	C833.041138,569.950500 831.239563,568.788208 829.630798,568.322693 
	C805.060181,561.213196 779.833557,558.373108 754.449219,556.162354 
	C720.356262,553.193115 686.222046,553.846863 652.105652,554.533203 
	C631.660278,554.944519 611.219788,556.883545 590.961121,559.663940 
	C552.777283,564.904602 514.644348,570.631653 477.305756,580.536377 
	C467.813293,583.054504 458.412018,585.915955 448.965179,588.606934 
	C447.845642,588.925781 446.713440,589.220947 445.569183,589.428406 
	C442.685974,589.951355 440.687134,588.673157 439.577148,586.102539 
	C438.364227,583.293640 440.190704,581.556946 442.279419,580.426880 
	C447.437531,577.636169 453.074097,576.009888 458.733734,574.646729 
	C487.008392,567.836975 515.494263,562.177917 544.370178,558.467468 
	C554.085876,557.218994 563.679443,554.975403 573.897339,553.893494 
z"/>
</svg>